<?xml version="1.0" encoding="utf-8"?>
<!-- Generator: Adobe Illustrator 14.0.0, SVG Export Plug-In . SVG Version: 6.00 Build 43363)  -->
<!DOCTYPE svg PUBLIC "-//W3C//DTD SVG 1.1//EN" "http://www.w3.org/Graphics/SVG/1.1/DTD/svg11.dtd">
<svg version="1.1" id="Layer_1" xmlns="http://www.w3.org/2000/svg" xmlns:xlink="http://www.w3.org/1999/xlink" x="0px" y="0px"
	 width="40px" height="40px" viewBox="0 0 40 40" enable-background="new 0 0 40 40" xml:space="preserve">
<path fill="#3772AB" d="M29.693,15.962c0-0.447-0.361-0.808-0.808-0.808H22.46l3.962-11.861L26.411,3.29
	c0.028-0.08,0.05-0.163,0.05-0.252c0-0.446-0.36-0.808-0.807-0.808h-8.078c-0.355,0-0.649,0.235-0.757,0.555l-0.009-0.003
	l-6.462,19.386l0.009,0.004c-0.027,0.08-0.051,0.162-0.051,0.252c0,0.447,0.361,0.809,0.808,0.809h7.176l-1.516,13.643l0.013,0.002
	c-0.004,0.031-0.019,0.057-0.019,0.086c0,0.447,0.361,0.807,0.808,0.807c0.326,0,0.595-0.195,0.719-0.475l0.016,0.008L29.619,16.3
	l-0.005-0.001C29.663,16.195,29.693,16.083,29.693,15.962 M18.84,32.92l1.156-10.406h-0.014C19.986,22.482,20,22.455,20,22.424
	c0-0.447-0.361-0.807-0.809-0.807h-6.957l5.925-17.771h6.373l-3.961,11.86l0.01,0.002c-0.027,0.082-0.051,0.164-0.051,0.253
	c0,0.446,0.361,0.808,0.808,0.808h6.197L18.84,32.92z"/>
</svg>
