<?xml version="1.0" encoding="utf-8"?>
<!-- Generator: Adobe Illustrator 14.0.0, SVG Export Plug-In . SVG Version: 6.00 Build 43363)  -->
<!DOCTYPE svg PUBLIC "-//W3C//DTD SVG 1.1//EN" "http://www.w3.org/Graphics/SVG/1.1/DTD/svg11.dtd">
<svg version="1.1" id="Layer_1" xmlns="http://www.w3.org/2000/svg" xmlns:xlink="http://www.w3.org/1999/xlink" x="0px" y="0px"
	 width="493.548px" height="87px" viewBox="0 0 493.548 87" enable-background="new 0 0 493.548 87" xml:space="preserve">
<g>
	<path fill="#009BDE" d="M441.407,42.705c2.233,2.387,4.832,3.579,8.353,3.579c2.723,0,7.036-0.947,7.036-4.68
		c0-2.908-1.948-4.252-6.996-4.252h-2.215v-2.265h2.806c4.007,0,5.67-0.765,5.67-3.732c0-2.753-3.363-3.885-6.332-3.885
		c-3.578,0-6.088,1.347-7.464,3.029l-1.898-1.683c1.774-1.836,4.039-3.61,9.453-3.61c3.702,0,8.721,1.346,8.721,5.874
		c0,3.366-2.355,4.406-3.702,5.017c2.05,0.705,4.436,1.897,4.436,5.417c0,5.322-4.741,7.037-9.789,7.037
		c-5.753,0-8.291-2.51-9.975-4.192L441.407,42.705z"/>
	<path fill="none" stroke="#009BDE" stroke-width="1.3092" stroke-miterlimit="10" d="M441.407,42.705
		c2.233,2.387,4.832,3.579,8.353,3.579c2.723,0,7.036-0.947,7.036-4.68c0-2.908-1.948-4.252-6.996-4.252h-2.215v-2.265h2.806
		c4.007,0,5.67-0.765,5.67-3.732c0-2.753-3.363-3.885-6.332-3.885c-3.578,0-6.088,1.347-7.464,3.029l-1.898-1.683
		c1.774-1.836,4.039-3.61,9.453-3.61c3.702,0,8.721,1.346,8.721,5.874c0,3.366-2.355,4.406-3.702,5.017
		c2.05,0.705,4.436,1.897,4.436,5.417c0,5.322-4.741,7.037-9.789,7.037c-5.753,0-8.291-2.51-9.975-4.192L441.407,42.705z"/>
	<path fill="#009BDE" d="M466.736,25.754h10.983c6.915,0,11.901,3.641,11.901,10.923c0,9.056-6.884,11.32-12.758,11.32h-10.127
		V25.754z M469.428,45.61h7.862c2.202,0,9.577-0.274,9.577-9.025c0-6.516-4.62-8.444-9.148-8.444h-8.291V45.61z"/>
	<path fill="none" stroke="#009BDE" stroke-width="1.3092" stroke-miterlimit="10" d="M466.736,25.754h10.983
		c6.915,0,11.901,3.641,11.901,10.923c0,9.056-6.884,11.32-12.758,11.32h-10.127V25.754z M469.428,45.61h7.862
		c2.202,0,9.577-0.274,9.577-9.025c0-6.516-4.62-8.444-9.148-8.444h-8.291V45.61z"/>
	<polygon fill="#55565A" points="117.767,30.245 108.315,30.245 108.315,25.768 131.994,25.768 131.994,30.245 122.542,30.245 
		122.542,63.572 117.767,63.572 	"/>
	<polygon fill="#55565A" points="146.771,25.768 166.32,25.768 166.32,30.245 151.545,30.245 151.545,42.231 163.492,42.231 
		163.492,46.709 151.545,46.709 151.545,59.094 166.32,59.094 166.32,63.572 146.771,63.572 	"/>
	<path fill="#55565A" d="M209.156,33.528c-2.687-2.438-6.118-3.88-9.75-3.88c-7.909,0-14.972,6.316-14.972,15.023
		c0,8.802,7.262,15.02,14.972,15.02c4.179,0,7.461-1.541,10.098-4.028l3.034,3.432c-3.383,3.086-8.356,5.074-13.132,5.074
		c-12.833,0-20.045-10.147-20.045-19.497c0-9.353,7.211-19.5,20.045-19.5c5.025,0,9.948,2.041,12.983,4.826L209.156,33.528z"/>
	<polygon fill="#55565A" points="251.99,25.768 256.763,25.768 256.763,63.572 251.99,63.572 251.99,46.461 232.243,46.461 
		232.243,63.572 227.467,63.572 227.467,25.768 232.243,25.768 232.243,41.985 251.99,41.985 	"/>
	<path fill="#99999A" d="M299.895,36.562c-0.646-4.477-3.233-7.213-7.262-7.213c-5.372,0-6.814,3.532-6.814,6.119
		c0,2.835,1.79,4.625,5.521,6.02l4.775,1.79c6.02,2.238,8.805,5.769,8.805,10.346c0,6.117-4.876,10.546-12.139,10.546
		c-6.861,0-11.738-3.632-12.334-11.193h4.774c0.398,4.129,2.486,7.016,7.81,7.016c4.129,0,7.111-2.637,7.111-5.97
		c0-2.934-2.436-4.826-5.867-6.167l-4.826-1.892c-5.619-2.188-8.406-5.471-8.406-10.346c0-6.515,5.424-10.445,11.64-10.445
		c6.269,0,11.144,3.729,11.69,11.391H299.895z"/>
	<path fill="#99999A" d="M338.134,25.171c12.834,0,20.047,10.147,20.047,19.498c0,9.352-7.213,19.5-20.047,19.5
		c-12.833,0-20.045-10.147-20.045-19.5C318.089,35.319,325.301,25.171,338.134,25.171 M338.134,59.691
		c7.711,0,14.974-6.068,14.974-15.022c0-8.953-7.263-15.021-14.974-15.021c-7.709,0-14.972,6.068-14.972,15.021
		C323.163,53.623,330.425,59.691,338.134,59.691"/>
	<polygon fill="#99999A" points="372.154,25.768 391.702,25.768 391.702,30.245 376.926,30.245 376.926,42.231 389.25,42.231 
		389.25,46.709 376.926,46.709 376.926,63.572 372.154,63.572 	"/>
	<polygon fill="#99999A" points="414.689,30.245 405.239,30.245 405.239,25.768 428.915,25.768 428.915,30.245 419.462,30.245 
		419.462,63.572 414.689,63.572 	"/>
	<path fill="#006098" d="M38.978,62.417c22.06,2.221,43.89-4.964,48.76-16.047c3.84-8.741-4.019-17.292-18.33-21.609
		c7.983,3.257,12.906,8.193,12.96,13.716v0.001c0.014,1.346-0.277,2.705-0.863,4.038c-2.093,4.765-7.755,8.873-15.941,11.567
		c-6.559,2.158-14.108,3.199-21.729,3.038c-1.884,0.01-3.792-0.077-5.704-0.27c-1.902-0.19-3.713-0.478-5.42-0.847"/>
	<path fill="#009BDE" d="M59.438,81.698c1.993-0.525,3.874-1.357,5.59-2.473c10.896-7.083,14.293-24.275,8.261-41.812
		c-3.423-9.951-9.415-18.574-16.873-24.283c-7.457-5.708-15.487-7.819-22.61-5.94c-1.993,0.525-3.874,1.358-5.59,2.473
		c-4.277,2.781-7.393,7.123-9.243,12.427c2.367-3.441,5.619-5.917,9.63-6.975c12.352-3.256,27.179,8.092,33.115,25.348
		c5.937,17.256,0.735,33.885-11.616,37.141c-3.94,1.04-8.129,0.587-12.203-1.063C45.049,81.65,52.654,83.486,59.438,81.698"/>
	<path fill="#99999A" d="M27.931,68.198L27.931,68.198c-1.063-1.126-1.946-2.476-2.625-4.012c-2.43-5.491-2.124-12.932,0.86-20.949
		c2.39-6.426,6.273-12.601,11.139-17.813c1.166-1.329,2.419-2.597,3.76-3.776c1.334-1.173,2.685-2.201,4.036-3.088
		c10.547-7.507,21.372-8.529,27.359-2.181c1.063,1.127,1.945,2.477,2.625,4.013c0.459,1.039,0.821,2.148,1.084,3.317
		c-0.167-2.773-0.739-5.364-1.758-7.671C68.763,3.267,51.647,3.941,36.183,17.546C20.718,31.151,12.762,52.533,18.411,65.306
		c4.456,10.071,16.041,11.774,28.325,5.376C39.219,73.534,32.291,72.821,27.931,68.198"/>
	<path fill="#006098" d="M43.836,57.122c-1.882,0.009-3.792-0.075-5.704-0.269c-1.902-0.191-3.713-0.479-5.42-0.848
		c-13.754-2.54-23-9.019-23.077-16.602c-0.013-1.348,0.278-2.705,0.863-4.038c0.396-0.902,0.921-1.781,1.565-2.63
		c-1.888,1.715-3.329,3.588-4.209,5.591c-4.87,11.083,9.064,21.871,31.123,24.089"/>
	<line fill="#3F6791" x1="82.369" y1="38.478" x2="82.369" y2="38.478"/>
</g>
</svg>
