<?xml version="1.0" encoding="utf-8"?>
<!-- Generator: Adobe Illustrator 14.0.0, SVG Export Plug-In . SVG Version: 6.00 Build 43363)  -->
<!DOCTYPE svg PUBLIC "-//W3C//DTD SVG 1.1//EN" "http://www.w3.org/Graphics/SVG/1.1/DTD/svg11.dtd">
<svg version="1.1" id="Layer_1" xmlns="http://www.w3.org/2000/svg" xmlns:xlink="http://www.w3.org/1999/xlink" x="0px" y="0px"
	 width="40px" height="25.551px" viewBox="0 0 40 25.551" enable-background="new 0 0 40 25.551" xml:space="preserve">
<path fill="#FFFFFF" d="M23.533,0.411H4.102c-1.951,0-3.533,1.582-3.533,3.533v17.665c0,1.951,1.582,3.531,3.533,3.531h19.432
	c1.951,0,3.533-1.58,3.533-3.531V3.944C27.066,1.993,25.484,0.411,23.533,0.411 M25.3,21.609c0,0.975-0.792,1.766-1.767,1.766H4.102
	c-0.975,0-1.767-0.791-1.767-1.766V3.944c0-0.976,0.792-1.767,1.767-1.767h19.432c0.975,0,1.767,0.791,1.767,1.767V21.609z
	 M38.549,3.944c-0.143,0-0.273,0.042-0.391,0.102l-0.005-0.009l-8.766,3.507C29.38,7.547,29.369,7.55,29.36,7.555L29.32,7.57
	l0.006,0.009c-0.29,0.145-0.493,0.437-0.493,0.781v8.832c0,0.347,0.203,0.637,0.493,0.782l-0.006,0.008l0.04,0.016
	c0.009,0.006,0.02,0.009,0.028,0.013l8.765,3.505l0.005-0.008c0.117,0.059,0.248,0.102,0.391,0.102c0.487,0,0.883-0.396,0.883-0.885
	V4.828C39.432,4.339,39.036,3.944,38.549,3.944 M37.665,19.423l-7.066-2.825V8.955l7.066-2.826V19.423z"/>
</svg>
